name ./resultDataOpenSim/trcMotMarkerGrf/sub10/grf-12-04.mot
datacolumns 19
datarows 20
range 0.47600000 0.55200000
endheader

                time	     ground_force_vx	     ground_force_vy	     ground_force_vz	     ground_force_px	     ground_force_py	     ground_force_pz	   l_ground_force_vx	   l_ground_force_vy	   l_ground_force_vz	   l_ground_force_px	   l_ground_force_py	   l_ground_force_pz	     ground_torque_x	     ground_torque_y	     ground_torque_z	   l_ground_torque_x	   l_ground_torque_y	   l_ground_torque_z	
          0.47600000	         49.96983172	        544.85708095	        -26.93605213	         -0.79832236	          0.00000000	         -0.04460694	          0.00000000	          0.00000000	          0.00000000	          0.00000000	          0.00000000	          0.00000000	          0.00000000	          3.92062466	          0.00000000	          0.00000000	          0.00000000	          0.00000000	
          0.48000000	         50.13193500	        553.07725518	        -27.72858220	         -0.79605879	          0.00000000	         -0.04455906	          0.00000000	          0.00000000	          0.00000000	          0.00000000	          0.00000000	          0.00000000	          0.00000000	          3.89393637	          0.00000000	          0.00000000	          0.00000000	          0.00000000	
          0.48400000	         50.01413348	        562.31884478	        -28.59010543	         -0.79373882	          0.00000000	         -0.04449961	          0.00000000	          0.00000000	          0.00000000	          0.00000000	          0.00000000	          0.00000000	          0.00000000	          3.84207780	          0.00000000	          0.00000000	          0.00000000	          0.00000000	
          0.48800000	         49.94695963	        572.48765553	        -29.51522565	         -0.79144606	          0.00000000	         -0.04443205	          0.00000000	          0.00000000	          0.00000000	          0.00000000	          0.00000000	          0.00000000	          0.00000000	          3.77111434	          0.00000000	          0.00000000	          0.00000000	          0.00000000	
          0.49200000	         50.21181292	        583.45441741	        -30.47583665	         -0.78924967	          0.00000000	         -0.04436428	          0.00000000	          0.00000000	          0.00000000	          0.00000000	          0.00000000	          0.00000000	          0.00000000	          3.68736819	          0.00000000	          0.00000000	          0.00000000	          0.00000000	
          0.49600000	         50.98874150	        595.04646538	        -31.42935700	         -0.78719161	          0.00000000	         -0.04430429	          0.00000000	          0.00000000	          0.00000000	          0.00000000	          0.00000000	          0.00000000	          0.00000000	          3.59563519	          0.00000000	          0.00000000	          0.00000000	          0.00000000	
          0.50000000	         52.34176602	        607.04969003	        -32.33158127	         -0.78528993	          0.00000000	         -0.04425497	          0.00000000	          0.00000000	          0.00000000	          0.00000000	          0.00000000	          0.00000000	          0.00000000	          3.49811340	          0.00000000	          0.00000000	          0.00000000	          0.00000000	
          0.50400000	         54.23720531	        619.24028772	        -33.14905526	         -0.78356310	          0.00000000	         -0.04422198	          0.00000000	          0.00000000	          0.00000000	          0.00000000	          0.00000000	          0.00000000	          0.00000000	          3.39439901	          0.00000000	          0.00000000	          0.00000000	          0.00000000	
          0.50800000	         56.58512736	        631.44765256	        -33.87083078	         -0.78200551	          0.00000000	         -0.04421111	          0.00000000	          0.00000000	          0.00000000	          0.00000000	          0.00000000	          0.00000000	          0.00000000	          3.28252288	          0.00000000	          0.00000000	          0.00000000	          0.00000000	
          0.51200000	         59.28912173	        643.60539768	        -34.51013920	         -0.78061004	          0.00000000	         -0.04422762	          0.00000000	          0.00000000	          0.00000000	          0.00000000	          0.00000000	          0.00000000	          0.00000000	          3.16065454	          0.00000000	          0.00000000	          0.00000000	          0.00000000	
          0.51600000	         62.28119906	        655.76162033	        -35.07983119	         -0.77937024	          0.00000000	         -0.04427721	          0.00000000	          0.00000000	          0.00000000	          0.00000000	          0.00000000	          0.00000000	          0.00000000	          3.02892855	          0.00000000	          0.00000000	          0.00000000	          0.00000000	
          0.52000000	         65.52796060	        668.05267872	        -35.55301184	         -0.77828629	          0.00000000	         -0.04436671	          0.00000000	          0.00000000	          0.00000000	          0.00000000	          0.00000000	          0.00000000	          0.00000000	          2.89084739	          0.00000000	          0.00000000	          0.00000000	          0.00000000	
          0.52400000	         69.02993762	        680.60381694	        -35.85277835	         -0.77737415	          0.00000000	         -0.04450386	          0.00000000	          0.00000000	          0.00000000	          0.00000000	          0.00000000	          0.00000000	          0.00000000	          2.75380990	          0.00000000	          0.00000000	          0.00000000	          0.00000000	
          0.52800000	         72.83395182	        693.36010635	        -35.88402704	         -0.77664802	          0.00000000	         -0.04470486	          0.00000000	          0.00000000	          0.00000000	          0.00000000	          0.00000000	          0.00000000	          0.00000000	          2.62850703	          0.00000000	          0.00000000	          0.00000000	          0.00000000	
          0.53200000	         77.02775494	        706.01540093	        -35.56964770	         -0.77606091	          0.00000000	         -0.04498914	          0.00000000	          0.00000000	          0.00000000	          0.00000000	          0.00000000	          0.00000000	          0.00000000	          2.52725132	          0.00000000	          0.00000000	          0.00000000	          0.00000000	
          0.53600000	         81.70848567	        718.18082744	        -34.86246043	         -0.77552072	          0.00000000	         -0.04536126	          0.00000000	          0.00000000	          0.00000000	          0.00000000	          0.00000000	          0.00000000	          0.00000000	          2.46165317	          0.00000000	          0.00000000	          0.00000000	          0.00000000	
          0.54000000	         86.97110501	        729.65879112	        -33.74025742	         -0.77498284	          0.00000000	         -0.04580266	          0.00000000	          0.00000000	          0.00000000	          0.00000000	          0.00000000	          0.00000000	          0.00000000	          2.44020770	          0.00000000	          0.00000000	          0.00000000	          0.00000000	
          0.54400000	         92.90257342	        740.54017323	        -32.20879092	         -0.77449744	          0.00000000	         -0.04627859	          0.00000000	          0.00000000	          0.00000000	          0.00000000	          0.00000000	          0.00000000	          0.00000000	          2.46629933	          0.00000000	          0.00000000	          0.00000000	          0.00000000	
          0.54800000	         99.52945207	        751.02173295	        -30.31221255	         -0.77414070	          0.00000000	         -0.04675190	          0.00000000	          0.00000000	          0.00000000	          0.00000000	          0.00000000	          0.00000000	          0.00000000	          2.53708452	          0.00000000	          0.00000000	          0.00000000	          0.00000000	
          0.55200000	        106.76140751	        761.12606022	        -28.12264624	         -0.77390819	          0.00000000	         -0.04720256	          0.00000000	          0.00000000	          0.00000000	          0.00000000	          0.00000000	          0.00000000	          0.00000000	          2.64365443	          0.00000000	          0.00000000	          0.00000000	          0.00000000	
